<svg xmlns="http://www.w3.org/2000/svg" width="64" height="64" viewBox="0 0 64 64" fill="none">
  <rect x="8" y="8" width="48" height="48" rx="16" fill="#1E6FC3" fill-opacity="0.12"/>
  <path d="M38.5 21.5v16.2c0 3.2-2.6 5.8-5.8 5.8s-5.8-2.6-5.8-5.8 2.6-5.8 5.8-5.8c1.2 0 2.3.4 3.2 1.1V21.5c0-1.1.9-2 2-2h.6c1.1 0 2 .9 2 2Z" fill="#1E6FC3"/>
  <path d="M22.5 30.2h.1c1 0 1.9.8 1.9 1.9v11.4c0 1-.8 1.9-1.9 1.9h-.1c-1 0-1.9-.8-1.9-1.9V32.1c0-1 .8-1.9 1.9-1.9Z" fill="#1557A0" fill-opacity="0.9"/>
</svg>

