<svg xmlns="http://www.w3.org/2000/svg" width="300" height="300" viewBox="0 0 300 300" fill="none">
  <defs>
    <linearGradient id="g" x1="0" y1="0" x2="300" y2="300" gradientUnits="userSpaceOnUse">
      <stop stop-color="#E2E8F0"/>
      <stop offset="1" stop-color="#F1F5F9"/>
    </linearGradient>
  </defs>
  <rect x="0" y="0" width="300" height="300" rx="24" fill="url(#g)"/>
  <rect x="20" y="20" width="260" height="260" rx="20" fill="#F8FAFC" fill-opacity="0.7"/>

  <path d="M118 220c-7 0-13-6-13-13V117c0-7 6-13 13-13s13 6 13 13v90c0 7-6 13-13 13Z" fill="#94A3B8"/>
  <path d="M182 220c-7 0-13-6-13-13V95c0-7 6-13 13-13s13 6 13 13v112c0 7-6 13-13 13Z" fill="#94A3B8" fill-opacity="0.9"/>
  <path d="M148 106c0-16 13-29 29-29h18c5 0 9 4 9 9s-4 9-9 9h-18c-6 0-11 5-11 11v72c0 6 5 11 11 11h18c5 0 9 4 9 9s-4 9-9 9h-18c-16 0-29-13-29-29v-72Z" fill="#1E6FC3" fill-opacity="0.25"/>
  <path d="M168 120c0-4 3-7 7-7h12c4 0 7 3 7 7s-3 7-7 7h-12c-4 0-7-3-7-7Z" fill="#1E6FC3"/>
</svg>

